<svg width="48" height="49" viewBox="0 0 48 49" fill="none" xmlns="http://www.w3.org/2000/svg">
<mask id="mask0_121_33" style="mask-type:alpha" maskUnits="userSpaceOnUse" x="3" y="4" width="42" height="42">
<path fill-rule="evenodd" clip-rule="evenodd" d="M27.4144 4.35061C24.9141 4.74121 22.6206 5.69204 20.6444 7.15721C19.7821 7.79648 17.9106 9.66822 17.6717 10.1303C17.3908 10.6735 17.7082 11.2316 18.2981 11.2316C18.5802 11.2316 18.7522 11.0796 19.6277 10.0569C20.5468 8.98333 22.1105 7.79777 23.5816 7.05935C24.5115 6.59257 26.2133 6.04316 27.2793 5.86572C28.4067 5.678 30.5592 5.67295 31.6924 5.85526C34.668 6.33407 37.4558 7.86708 39.4046 10.096C40.87 11.7719 41.935 13.8438 42.4557 16.031C43.2149 19.2202 42.8643 22.2997 41.419 25.1361C40.592 26.7591 39.6238 27.9414 37.8405 29.5056C37.2769 29.9999 37.2036 30.3587 37.5876 30.7426C38.0017 31.1568 38.324 31.0334 39.4605 30.026C41.725 28.0188 43.3342 25.2896 43.9675 22.3822C44.9271 17.9759 43.7571 13.1363 40.8724 9.57927C38.7805 6.99987 35.8956 5.23553 32.6034 4.52227C31.9085 4.37173 31.3098 4.32326 29.8349 4.29829C28.7999 4.28076 27.7106 4.30426 27.4144 4.35061ZM6.27493 9.4044C4.61955 9.68098 3.59951 10.6403 3.31411 12.1894C3.25894 12.4889 3.21378 13.2945 3.21387 13.9794C3.21433 21.4481 6.59695 29.234 12.4828 35.3138C17.5713 40.57 23.9655 43.992 30.5233 44.9687C31.8462 45.1657 35.4191 45.3026 36.2322 45.1874C37.8306 44.9611 38.7467 44.0497 39.0697 42.3646C39.2569 41.3885 39.2537 35.7025 39.0655 34.8114C38.9029 34.0417 38.5637 33.369 38.1209 32.938C37.3995 32.2357 36.6211 32.0019 34.6083 31.8826C32.9426 31.7838 32.8119 31.7628 30.8074 31.2703C29.1558 30.8647 28.1436 30.8131 27.4071 31.0972C27.142 31.1994 26.1005 31.9175 24.905 32.822L22.8571 34.3718L22.1921 33.9878C20.0664 32.7599 17.9184 30.9275 16.4435 29.0838C15.6088 28.0404 15.3352 27.9203 14.8649 28.3905C14.4675 28.7879 14.5154 29.0177 15.1662 29.8374C16.5403 31.5681 18.35 33.2159 20.288 34.5012C22.2314 35.7899 22.8933 36.0427 23.4665 35.7152C23.5738 35.6539 24.5573 34.9221 25.652 34.089C26.7466 33.256 27.7741 32.5259 27.9353 32.4666C28.428 32.2855 28.8995 32.3309 30.5233 32.7163C32.4055 33.1629 33.5955 33.3532 34.5165 33.3548C36.1528 33.3578 36.976 33.6622 37.3797 34.4135C37.7574 35.1163 37.8063 35.7027 37.7585 38.9543C37.7035 42.6955 37.615 43.0873 36.7224 43.5427C35.7398 44.044 31.4729 43.806 28.4579 43.0817C22.1537 41.5673 15.8507 37.4383 11.4373 31.9318C6.95826 26.3434 4.55052 19.7889 4.69602 13.5802C4.72659 12.2772 4.74293 12.171 4.97187 11.7814C5.24928 11.3095 5.69826 11.0231 6.38618 10.8793C7.04629 10.7411 12.9771 10.7185 13.4491 10.8524C14.1642 11.0551 14.5337 11.3353 14.8077 11.883C15.0396 12.3465 15.0735 12.5394 15.1541 13.8566C15.2608 15.6007 15.4331 16.6908 15.8021 17.9565C16.1439 19.1294 16.2351 20.141 16.0408 20.6047C15.9645 20.7868 15.2311 21.8149 14.4111 22.8895C13.591 23.9641 12.8637 24.951 12.795 25.0828C12.2951 26.0409 13.3026 27.2214 14.0135 26.5105C14.201 26.323 14.2404 26.2086 14.2093 25.942C14.1729 25.6299 14.2648 25.4854 15.622 23.7212C17.3598 21.4622 17.544 21.1201 17.6012 20.0458C17.6381 19.3537 17.6009 19.1003 17.2771 17.841C16.8105 16.0256 16.7315 15.5394 16.6206 13.8019C16.4971 11.8649 16.2939 11.2078 15.579 10.4322C15.1448 9.96124 14.4027 9.55706 13.6971 9.40715C13.1212 9.28488 7.00379 9.28258 6.27493 9.4044ZM27.8781 12.1908C27.4869 12.3303 27.2472 12.5224 26.9563 12.9298C26.7799 13.177 26.755 13.361 26.7138 14.7199L26.6679 16.2345L25.1532 16.2804C23.5639 16.3286 23.4389 16.3592 23.0302 16.8004C22.615 17.2485 22.5501 17.4717 22.5086 18.5937C22.4385 20.4866 22.6477 21.161 23.4471 21.6191C23.7884 21.8148 23.9517 21.8369 25.2619 21.8651L26.7017 21.8959L26.7307 23.3868C26.7579 24.7871 26.7731 24.8973 26.9809 25.2001C27.1025 25.3775 27.3472 25.6221 27.5245 25.7438C27.8255 25.9502 27.9422 25.967 29.2769 25.9952C30.8445 26.0282 31.2204 25.9627 31.6797 25.5762C32.2073 25.1323 32.3091 24.7559 32.3114 23.2421L32.3134 21.8962L33.7592 21.8652C35.3861 21.8303 35.5857 21.7666 36.1132 21.1144L36.3983 20.762L36.4271 19.1716C36.4599 17.3621 36.3837 17.0747 35.7412 16.5841C35.4097 16.3309 35.3762 16.3255 33.8815 16.2804L32.3593 16.2345L32.3134 14.7658C32.2632 13.158 32.1987 12.9292 31.6713 12.4854C31.5164 12.355 31.2361 12.2057 31.0483 12.1536C30.5427 12.0132 28.3024 12.0394 27.8781 12.1908ZM28.303 13.5987C28.2263 13.6474 28.1853 14.2099 28.1653 15.4874C28.1283 17.8398 28.3122 17.6574 25.9758 17.6574C24.5278 17.6574 24.2251 17.6807 24.1041 17.8016C23.9897 17.9161 23.9599 18.1642 23.9599 19.001C23.9599 19.5813 24.0026 20.1361 24.0549 20.2337C24.1437 20.3997 24.2636 20.4113 25.8969 20.4113C27.6525 20.4113 27.9107 20.4521 28.0563 20.753C28.0997 20.8427 28.1562 21.7217 28.1819 22.7062L28.2284 24.4962H29.5136H30.7987L30.8446 22.629C30.9038 20.2249 30.7223 20.4113 33.0045 20.4113C33.9288 20.4113 34.7504 20.3862 34.8303 20.3556C34.9526 20.3086 34.9755 20.1071 34.9755 19.0736C34.9755 17.9553 34.9599 17.839 34.798 17.7524C34.6939 17.6968 33.9174 17.6574 32.9227 17.6574H31.2251L31.0349 17.4155C30.8579 17.1904 30.8446 17.0546 30.8446 15.4602C30.8446 14.25 30.8123 13.7145 30.7345 13.6367C30.611 13.5132 28.4895 13.4801 28.303 13.5987Z" fill="#1E84B5"/>
</mask>
<g mask="url(#mask0_121_33)">
<path fill-rule="evenodd" clip-rule="evenodd" d="M27.4146 4.35061C24.9143 4.74121 22.6209 5.69204 20.6447 7.15721C19.7824 7.79648 17.9109 9.66822 17.6719 10.1303C17.391 10.6735 17.7085 11.2316 18.2984 11.2316C18.5805 11.2316 18.7525 11.0796 19.628 10.0569C20.547 8.98333 22.1108 7.79777 23.5818 7.05935C24.5117 6.59257 26.2136 6.04316 27.2796 5.86572C28.4069 5.678 30.5595 5.67295 31.6926 5.85526C34.6682 6.33407 37.4561 7.86708 39.4049 10.096C40.8702 11.7719 41.9352 13.8438 42.456 16.031C43.2152 19.2202 42.8646 22.2997 41.4192 25.1361C40.5922 26.7591 39.6241 27.9414 37.8407 29.5056C37.2772 29.9999 37.2038 30.3587 37.5878 30.7426C38.0019 31.1568 38.3242 31.0334 39.4608 30.026C41.7253 28.0188 43.3345 25.2896 43.9677 22.3822C44.9274 17.9759 43.7574 13.1363 40.8727 9.57927C38.7807 6.99987 35.8958 5.23553 32.6036 4.52227C31.9087 4.37173 31.31 4.32326 29.8351 4.29829C28.8001 4.28076 27.7108 4.30426 27.4146 4.35061ZM27.8784 12.1908C27.4871 12.3303 27.2475 12.5224 26.9566 12.9298C26.7801 13.177 26.7552 13.361 26.714 14.7199L26.6681 16.2345L25.1535 16.2804C23.5642 16.3286 23.4392 16.3592 23.0304 16.8004C22.6152 17.2485 22.5503 17.4717 22.5088 18.5937C22.4388 20.4866 22.648 21.161 23.4473 21.6191C23.7886 21.8148 23.952 21.8369 25.2622 21.8651L26.7019 21.8959L26.7309 23.3868C26.7582 24.7871 26.7733 24.8973 26.9812 25.2001C27.1028 25.3775 27.3474 25.6221 27.5248 25.7438C27.8258 25.9502 27.9425 25.967 29.2772 25.9952C30.8448 26.0282 31.2207 25.9627 31.68 25.5762C32.2075 25.1323 32.3093 24.7559 32.3116 23.2421L32.3136 21.8962L33.7594 21.8652C35.3864 21.8303 35.5859 21.7666 36.1135 21.1144L36.3986 20.762L36.4273 19.1716C36.4601 17.3621 36.3839 17.0747 35.7414 16.5841C35.4099 16.3309 35.3764 16.3255 33.8817 16.2804L32.3595 16.2345L32.3136 14.7658C32.2634 13.158 32.199 12.9292 31.6715 12.4854C31.5167 12.355 31.2363 12.2057 31.0486 12.1536C30.543 12.0132 28.3027 12.0394 27.8784 12.1908ZM28.3032 13.5987C28.2266 13.6474 28.1855 14.2099 28.1655 15.4874C28.1285 17.8398 28.3125 17.6574 25.9761 17.6574C24.5281 17.6574 24.2253 17.6807 24.1043 17.8016C23.99 17.9161 23.9601 18.1642 23.9601 19.001C23.9601 19.5813 24.0029 20.1361 24.0551 20.2337C24.144 20.3997 24.2639 20.4113 25.8971 20.4113C27.6527 20.4113 27.911 20.4521 28.0566 20.753C28.1 20.8427 28.1564 21.7217 28.1821 22.7062L28.2287 24.4962H29.5138H30.799L30.8449 22.629C30.904 20.2249 30.7225 20.4113 33.0048 20.4113C33.9291 20.4113 34.7507 20.3862 34.8305 20.3556C34.9529 20.3086 34.9757 20.1071 34.9757 19.0736C34.9757 17.9553 34.9601 17.839 34.7982 17.7524C34.6941 17.6968 33.9177 17.6574 32.923 17.6574H31.2254L31.0352 17.4155C30.8581 17.1904 30.8449 17.0546 30.8449 15.4602C30.8449 14.25 30.8126 13.7145 30.7347 13.6367C30.6113 13.5132 28.4897 13.4801 28.3032 13.5987Z" fill="#0E384C"/>
<rect x="-8" y="-7" width="63" height="56" fill="url(#paint0_linear_121_33)"/>
</g>
<defs>
<linearGradient id="paint0_linear_121_33" x1="23.5" y1="-7" x2="23.5" y2="49" gradientUnits="userSpaceOnUse">
<stop stop-color="#012D3A"/>
<stop offset="1" stop-color="#51B8A8"/>
</linearGradient>
</defs>
</svg>
