<svg width="47" height="49" viewBox="0 0 47 49" fill="none" xmlns="http://www.w3.org/2000/svg">
<mask id="mask0_121_9" style="mask-type:alpha" maskUnits="userSpaceOnUse" x="0" y="1" width="47" height="48">
<path fill-rule="evenodd" clip-rule="evenodd" d="M13.9182 1.25687C12.1051 1.30984 11.914 1.33187 11.5016 1.53494C10.4961 2.03012 10.0281 3.31244 10.4855 4.31931C10.5804 4.52828 10.8814 4.89465 11.1544 5.13344L11.6507 5.56769L11.5901 6.69625C11.5524 7.39665 11.4013 8.45725 11.1916 9.4915C10.8011 11.419 10.8007 11.9863 11.1897 12.65C11.6652 13.4613 12.5185 13.7247 13.5432 13.3763L14.1057 13.1851L14.4338 13.503C14.6143 13.6778 14.9188 13.8862 15.1105 13.9661C15.7958 14.2516 16.9415 14.0827 17.6691 13.589L18.0257 13.3471L18.6906 13.6589C19.2807 13.9355 19.4456 13.9707 20.1526 13.9707C20.8812 13.9707 20.9962 13.9442 21.495 13.6616L22.0405 13.3524L22.2218 13.583C22.3216 13.7099 22.6223 13.9228 22.8901 14.0562C23.7579 14.4887 24.7908 14.3505 25.563 13.6987C25.8065 13.493 25.8991 13.4633 26.0479 13.543C26.1491 13.5972 26.4451 13.6872 26.7057 13.7431C27.5508 13.9243 28.4686 13.5002 28.8508 12.7519C29.0542 12.3535 29.0716 11.6625 28.9146 10.2113C28.7421 8.61578 28.7702 7.0945 28.9898 6.1465C29.0862 5.73025 29.1518 5.62262 29.3414 5.56984C29.4695 5.53422 30.3549 5.50169 31.3088 5.49765C36.3215 5.47656 45.5294 5.26684 45.7463 5.16897C45.9244 5.08853 45.9876 4.98025 46.0095 4.71784C46.0637 4.06609 46.1167 4.07284 41.7586 4.17484C39.6464 4.22434 32.1231 4.30928 25.0403 4.36365C10.6824 4.474 11.8504 4.52069 11.5593 3.82403C11.4404 3.53931 11.438 3.43956 11.5438 3.16169C11.6123 2.98178 11.7874 2.74562 11.9329 2.63697C12.1947 2.44159 12.2551 2.43944 17.4173 2.43944C20.7653 2.43944 23.6286 2.48987 25.4026 2.58006C29.2986 2.77815 45.4941 2.73465 45.8166 2.52522C46.0684 2.36172 46.1082 1.82622 45.8824 1.63881C45.7662 1.54234 44.0349 1.52219 37.1871 1.53765C30.9385 1.55172 27.7158 1.51947 25.2151 1.41794C20.9603 1.24506 16.4975 1.1815 13.9182 1.25687ZM12.9242 5.64203C12.7999 5.67531 12.7642 5.89534 12.7171 6.92022C12.6781 7.76387 12.5674 8.59112 12.3693 9.51756C12.2095 10.2652 12.0712 11.1237 12.0622 11.4252C12.0473 11.9219 12.0709 11.9952 12.3134 12.2037C12.6139 12.4622 12.8954 12.4453 13.516 12.1311C13.7073 12.0343 14.0212 11.9551 14.2135 11.9551C14.5126 11.9551 14.6254 12.0226 14.9949 12.4223C15.2607 12.7098 15.5356 12.9114 15.7099 12.9462C16.1128 13.0268 16.7268 12.8368 17.2692 12.4637C17.5319 12.2831 17.8525 12.1426 18.0022 12.1426C18.1487 12.1426 18.5699 12.3001 18.9384 12.4925C19.4853 12.7783 19.7073 12.8426 20.1466 12.8426C20.6147 12.8426 20.7508 12.797 21.1929 12.4925C21.9348 11.9815 22.2677 12.0045 22.9087 12.6107C23.6718 13.3323 24.1728 13.3533 24.8886 12.6934C25.412 12.211 25.8568 12.1294 26.4138 12.4137C26.918 12.6708 27.4056 12.6707 27.6631 12.4133C27.8471 12.2293 27.8569 12.1487 27.8033 11.2649C27.6551 8.82297 27.6359 7.44831 27.7391 6.67225C27.7988 6.22384 27.8719 5.79353 27.9016 5.71609C27.9486 5.59375 27.7545 5.57865 26.4213 5.60115L24.8869 5.62694L24.8585 6.56444C24.8429 7.08006 24.8842 7.86053 24.9503 8.29881C25.0165 8.73709 25.0602 9.18006 25.0473 9.28319C25.0008 9.65641 24.4859 9.83209 24.1543 9.58787C23.8968 9.39831 23.7027 8.20937 23.7026 6.82225V5.58006H22.3182H20.9339L20.8435 6.90437C20.7607 8.11909 20.7352 8.24322 20.5363 8.40437C20.2499 8.63631 20.0962 8.626 19.8271 8.35684C19.6151 8.14487 19.6059 8.08656 19.6469 7.20841C19.6706 6.69953 19.7057 6.12503 19.7249 5.93162L19.7597 5.58006H18.4093H17.0588L17.0571 6.30662C17.0554 7.00778 16.8485 8.75472 16.7309 9.06147C16.6993 9.14369 16.5704 9.25787 16.4443 9.31534C16.1654 9.44247 15.7784 9.29762 15.695 9.03503C15.6648 8.93997 15.7092 8.32703 15.7935 7.67303C15.882 6.98659 15.9205 6.29284 15.8846 6.03194L15.8224 5.58006L14.4484 5.59094C13.6927 5.59694 13.0068 5.6199 12.9242 5.64203ZM4.99337 9.05847C3.8469 9.49919 2.90255 10.8422 2.90255 12.0318C2.90255 12.8328 3.12962 13.2978 3.84315 13.9585C5.72565 15.7014 8.18152 14.8166 8.63687 12.2312C8.75096 11.5836 8.62833 10.7363 8.3394 10.1762C7.75534 9.04366 6.29799 8.5569 4.99337 9.05847ZM5.27237 10.2253C4.55687 10.5818 4.02755 11.3728 4.02755 12.0854C4.02755 12.841 5.2388 13.7999 6.0773 13.708C6.61309 13.6493 6.92124 13.4072 7.2474 12.7889C7.48834 12.3321 7.51027 12.2142 7.47465 11.5706C7.44437 11.0247 7.38577 10.7885 7.22396 10.5614C6.78559 9.94572 6.07787 9.82384 5.27237 10.2253ZM12.4182 15.9983C7.53943 16.6082 5.10718 20.999 6.32265 27.002C6.80227 29.371 7.67171 31.6697 9.24165 34.7194C10.7251 37.6016 10.9398 38.2356 11.7641 42.1697C12.2794 44.6297 12.5601 45.6296 12.9825 46.5102C13.3199 47.2136 13.862 47.8485 14.3336 48.0923C15.0429 48.4592 16.1325 48.3854 16.6444 47.9358C17.5688 47.1243 17.8921 45.9144 18.4177 41.2988C19.0052 36.14 19.4923 34.5311 20.3054 35.0638C20.903 35.4555 21.2234 36.8939 21.7457 41.5332C22.1844 45.4281 22.527 46.8628 23.2085 47.6591C24.0457 48.6371 25.7342 48.5167 26.6002 47.4172C27.2993 46.5296 27.6686 45.4557 28.3144 42.4323C29.174 38.4081 29.4526 37.507 30.3852 35.7332C32.3241 32.0453 33.3254 29.4841 33.8582 26.8485C34.0373 25.9626 34.0733 25.491 34.072 24.0488C34.0699 21.9737 33.9246 21.2803 33.1686 19.739C32.1091 17.5793 30.1928 16.3064 27.5203 15.9873C25.8602 15.7891 24.1113 16.0984 22.1474 16.9375C21.3597 17.2741 21.1184 17.3333 20.3776 17.372C19.3834 17.424 18.8254 17.3148 17.8068 16.8691C16.7977 16.4274 15.6266 16.1084 14.59 15.9928C13.5836 15.8806 13.3555 15.8811 12.4182 15.9983ZM12.0901 17.2534C9.1988 17.8442 7.54524 19.8109 7.20174 23.0674C6.88524 26.0689 8.06537 30.1939 10.5369 34.7248C11.6562 36.7767 12.0654 38.0118 12.8422 41.6841C13.5987 45.2599 13.9867 46.3635 14.671 46.8854C15.0841 47.2005 15.7198 47.2491 16.0086 46.9878C16.5028 46.5407 16.8212 45.0388 17.2916 40.9383C17.4769 39.3221 17.6933 37.6588 17.7723 37.2421C18.1843 35.0705 18.8583 33.9603 19.8451 33.828C20.8846 33.6886 21.6626 34.487 22.1176 36.1605C22.3713 37.0933 22.5333 38.1738 22.8736 41.2051C23.328 45.2519 23.7309 46.8857 24.331 47.1138C24.874 47.3203 25.548 46.9893 25.9677 46.3102C26.3184 45.7427 26.6978 44.4524 27.1868 42.1639C28.1116 37.8358 28.3127 37.2268 29.7165 34.5019C31.6963 30.6587 32.6109 28.0401 32.9056 25.3714C33.2863 21.9239 32.1601 19.0928 29.9494 17.9396C28.7277 17.3023 28.0756 17.1571 26.4807 17.1669C24.8701 17.1768 24.2537 17.3068 22.7183 17.9603C21.9427 18.2904 20.822 18.5854 20.2463 18.611C19.9943 18.6222 20.4441 18.8902 20.9732 19.0441C21.6454 19.2395 21.846 19.6367 21.4651 20.0176C21.0181 20.4646 20.125 20.1471 19.0637 19.164C18.1387 18.3069 17.7345 18.0517 16.7095 17.6777C15.2229 17.135 13.4611 16.9733 12.0901 17.2534ZM1.46855 18.4596C0.398585 18.7568 -0.247258 20.0786 0.0896793 21.2817C0.411523 22.4313 1.86343 23.2181 3.11096 22.9188C3.71471 22.7739 4.39627 22.1359 4.56924 21.5536C4.94968 20.2725 4.41859 19.0532 3.27249 18.5764C2.77552 18.3697 1.97809 18.3182 1.46855 18.4596ZM1.45599 19.7682C1.33534 19.8887 1.20699 20.1626 1.1709 20.3767C1.0374 21.1667 1.64105 21.7988 2.52868 21.7988C3.06334 21.7988 3.33568 21.6115 3.47443 21.1482C3.74949 20.2303 3.18699 19.5488 2.15443 19.5488C1.77709 19.5488 1.62868 19.5954 1.45599 19.7682ZM37.4969 20.791C36.763 21.1647 36.4214 22.2827 36.7792 23.1392C36.9409 23.5262 37.4751 23.9963 37.9201 24.1432C38.4674 24.3238 39.2932 24.2243 39.6771 23.9316C40.2412 23.5013 40.5032 22.7086 40.3139 22.0052C40.0021 20.847 38.5856 20.2366 37.4969 20.791ZM37.9309 21.9028C37.6113 22.3592 37.8344 22.9341 38.3846 23.0722C38.7961 23.1755 39.0773 23.0456 39.1652 22.7117C39.3136 22.1484 39.0721 21.8162 38.4539 21.7334C38.1418 21.6915 38.0605 21.7178 37.9309 21.9028Z" fill="#0E384C"/>
</mask>
<g mask="url(#mask0_121_9)">
<path fill-rule="evenodd" clip-rule="evenodd" d="M12.9183 15.9982C8.03952 16.6082 5.60727 20.999 6.82274 27.002C7.30236 29.3709 8.1718 31.6696 9.74174 34.7194C11.2252 37.6015 11.4399 38.2355 12.2642 42.1696C12.7795 44.6296 13.0602 45.6295 13.4826 46.5101C13.82 47.2135 14.3621 47.8484 14.8337 48.0922C15.543 48.4591 16.6326 48.3853 17.1445 47.9358C18.0689 47.1242 18.3921 45.9143 18.9178 41.2987C19.5053 36.14 19.9924 34.531 20.8055 35.0637C21.4031 35.4554 21.7235 36.8938 22.2458 41.5331C22.6845 45.428 23.0271 46.8627 23.7086 47.659C24.5458 48.637 26.2343 48.5166 27.1003 47.4171C27.7994 46.5295 28.1687 45.4556 28.8145 42.4323C29.6741 38.408 29.9526 37.5069 30.8853 35.7332C32.8242 32.0452 33.8255 29.484 34.3583 26.8484C34.5374 25.9625 34.5734 25.4909 34.5721 24.0487C34.57 21.9737 34.4247 21.2802 33.6687 19.739C32.6092 17.5792 30.6929 16.3063 28.0204 15.9873C26.3603 15.789 24.6114 16.0984 22.6475 16.9374C21.8598 17.274 21.6185 17.3332 20.8776 17.372C19.8835 17.4239 19.3255 17.3148 18.3069 16.869C17.2978 16.4273 16.1267 16.1083 15.0901 15.9927C14.0837 15.8805 13.8556 15.881 12.9183 15.9982ZM12.5901 17.2534C9.69889 17.8441 8.04533 19.8109 7.70183 23.0674C7.38533 26.0689 8.56546 30.1939 11.037 34.7247C12.1563 36.7766 12.5655 38.0118 13.3423 41.684C14.0988 45.2599 14.4868 46.3634 15.1711 46.8853C15.5841 47.2004 16.2199 47.2491 16.5087 46.9878C17.0029 46.5406 17.3213 45.0387 17.7917 40.9383C17.977 39.322 18.1934 37.6587 18.2724 37.242C18.6844 35.0705 19.3584 33.9602 20.3451 33.8279C21.3846 33.6885 22.1627 34.487 22.6177 36.1604C22.8714 37.0932 23.0334 38.1738 23.3736 41.205C23.8281 45.2518 24.231 46.8856 24.8311 47.1138C25.3741 47.3202 26.0481 46.9893 26.4678 46.3101C26.8185 45.7426 27.1979 44.4523 27.6869 42.1639C28.6117 37.8357 28.8128 37.2267 30.2166 34.5019C32.1964 30.6586 33.111 28.04 33.4056 25.3714C33.7864 21.9238 32.6602 19.0927 30.4495 17.9395C29.2278 17.3022 28.5756 17.157 26.9808 17.1668C25.3701 17.1768 24.7538 17.3067 23.2184 17.9602C22.4428 18.2903 21.3221 18.5854 20.7464 18.6109C20.4944 18.6221 20.9442 18.8901 21.4732 19.044C22.1455 19.2395 22.3461 19.6366 21.9651 20.0175C21.5181 20.4645 20.6251 20.147 19.5638 19.1639C18.6388 18.3068 18.2346 18.0516 17.2096 17.6776C15.723 17.135 13.9612 16.9732 12.5901 17.2534Z" fill="#1E84B5"/>
<rect x="-8" y="-3" width="63" height="56" fill="url(#paint0_linear_121_9)"/>
</g>
<defs>
<linearGradient id="paint0_linear_121_9" x1="23.5" y1="-3" x2="23.5" y2="53" gradientUnits="userSpaceOnUse">
<stop stop-color="#012D3A"/>
<stop offset="1" stop-color="#51B8A8"/>
</linearGradient>
</defs>
</svg>
