<svg width="47" height="49" viewBox="0 0 47 49" fill="none" xmlns="http://www.w3.org/2000/svg">
<mask id="mask0_121_2" style="mask-type:alpha" maskUnits="userSpaceOnUse" x="0" y="2" width="47" height="45">
<mask id="mask1_121_2" style="mask-type:luminance" maskUnits="userSpaceOnUse" x="0" y="1" width="47" height="48">
<path d="M47 1.22559H0V48.2256H47V1.22559Z" fill="white"/>
</mask>
<g mask="url(#mask1_121_2)">
<path fill-rule="evenodd" clip-rule="evenodd" d="M21.205 2.97168C15.6991 3.94638 11.3544 8.32747 10.4194 13.8478C10.3205 14.431 10.2653 15.2511 10.2677 16.0968C10.274 18.2759 10.6488 19.8797 11.6119 21.8492C13.4446 25.5965 16.7661 28.1635 20.9296 29.05C21.7181 29.218 22.1856 29.2552 23.4999 29.2552C25.2418 29.2552 26.3004 29.0938 27.7226 28.6111C32.3284 27.048 35.7233 23.0653 36.5892 18.2093C36.7825 17.1257 36.7788 15.0028 36.5817 13.8478C35.7536 8.99695 32.2706 4.9466 27.6182 3.42433C25.6776 2.78937 23.2162 2.61569 21.205 2.97168ZM21.5205 4.30631C16.6365 5.12734 12.662 9.077 11.7888 13.9772C11.5845 15.1237 11.6031 17.1101 11.8289 18.254C12.7832 23.0881 16.3972 26.7021 21.2968 27.7217C22.3826 27.9477 24.6364 27.9488 25.703 27.7239C29.5047 26.9222 32.5003 24.6245 34.2193 21.1915C34.5523 20.5265 34.9866 19.1872 35.172 18.254C35.3988 17.1115 35.4171 15.1283 35.2114 13.9772C34.5696 10.3858 32.2623 7.23619 29.0039 5.5039C28.0178 4.97955 26.5473 4.48669 25.4276 4.3053C24.3754 4.13474 22.5381 4.1352 21.5205 4.30631ZM21.8476 6.04761C20.5123 6.25718 18.3103 7.15468 17.8773 7.6658C17.5179 8.09009 17.8092 8.75305 18.3552 8.75305C18.5045 8.75305 18.8382 8.62829 19.0969 8.47582C23.0945 6.11866 28.3247 7.38463 30.8604 11.3234C32.5914 14.0119 32.6891 17.5376 31.1101 20.3241C30.6773 21.088 30.6612 21.439 31.0457 21.7249C31.2486 21.8756 31.3487 21.8935 31.5965 21.8232C31.8441 21.753 31.9706 21.6123 32.2908 21.0513C33.1567 19.5342 33.5976 17.8543 33.5976 16.0715C33.5976 13.3545 32.6675 11.0069 30.8208 9.06277C28.5107 6.63089 25.206 5.52051 21.8476 6.04761ZM23.0409 9.30383C22.902 9.44272 22.8573 9.60979 22.8573 9.99056C22.8573 10.4635 22.8422 10.4974 22.6049 10.5544C21.4755 10.8258 20.659 11.8826 20.5819 13.1724C20.51 14.3755 20.9674 15.0713 22.293 15.7755L22.8114 16.0509L22.8361 18.1054L22.8609 20.1599L22.4689 20.0975C22.2534 20.0632 21.8608 19.9132 21.5965 19.7642C21.3322 19.6152 21.012 19.4933 20.8851 19.4933C20.3374 19.4933 20.0761 20.2743 20.4935 20.6638C20.82 20.9684 21.6192 21.3316 22.2408 21.458L22.8114 21.574L22.8389 22.0911C22.8616 22.5199 22.9068 22.64 23.1037 22.7948C23.4102 23.036 23.6162 23.0307 23.9145 22.774C24.1119 22.6042 24.1653 22.462 24.2078 21.9937C24.2489 21.5415 24.2919 21.421 24.4126 21.421C24.74 21.421 25.5346 20.9253 25.9688 20.4502C26.5829 19.7783 26.8348 19.1161 26.8393 18.1622C26.8434 17.2904 26.6511 16.7835 26.0821 16.1662C25.7244 15.7782 25.0028 15.3518 24.483 15.2213L24.2343 15.1589V13.5166C24.2343 12.6132 24.2619 11.8741 24.2957 11.8741C24.3295 11.8741 24.5767 11.9981 24.8451 12.1495C25.1135 12.301 25.4297 12.4249 25.548 12.4249C25.8769 12.4249 26.181 12.0467 26.1457 11.6815C26.1072 11.2853 25.5261 10.8309 24.7761 10.6104C24.2659 10.4605 24.2345 10.4348 24.2344 10.1666C24.2342 9.76355 24.0605 9.31558 23.8635 9.2101C23.5935 9.06561 23.2387 9.106 23.0409 9.30383ZM15.3224 10.0611C14.5833 11.0763 14.0299 12.251 13.6546 13.6011C13.4869 14.2046 13.4584 14.5527 13.4581 16.005C13.4579 17.5521 13.4793 17.7826 13.6991 18.5942C14.1744 20.3493 15.0837 21.9118 16.3874 23.2134C19.6327 26.4539 24.7085 27.0898 28.6548 24.7505C29.8511 24.0412 30.123 23.6578 29.7679 23.1801C29.4625 22.7691 29.1177 22.8071 28.3045 23.3409C26.2218 24.7082 23.7858 25.1126 21.3417 24.4969C18.3325 23.7387 16.0328 21.5049 15.0829 18.4176C14.8557 17.6792 14.8345 17.4803 14.8309 16.0509C14.8275 14.6933 14.8542 14.3961 15.0359 13.7656C15.3021 12.8426 15.7502 11.8728 16.2518 11.1341C16.4837 10.7927 16.6457 10.4483 16.6457 10.2972C16.6457 9.91574 16.3774 9.67101 15.9589 9.67101C15.6501 9.67101 15.5714 9.71921 15.3224 10.0611ZM22.4455 12.165C22.3064 12.2744 22.1355 12.5003 22.0659 12.6669C21.9183 13.0201 21.8999 13.6484 22.03 13.8915C22.1136 14.0477 22.6656 14.4445 22.7993 14.4445C22.8312 14.4445 22.8573 13.8868 22.8573 13.2052C22.8573 12.5236 22.8216 11.9659 22.7779 11.9659C22.7342 11.9659 22.5847 12.0555 22.4455 12.165ZM24.2343 18.3512C24.2343 19.6875 24.2591 20.0409 24.349 19.99C25.0868 19.5731 25.4617 18.9753 25.467 18.2078C25.4696 17.8374 25.4145 17.6119 25.2608 17.3632C25.0599 17.0381 24.5564 16.6476 24.3382 16.6476C24.2646 16.6476 24.2343 17.1443 24.2343 18.3512ZM1.37464 26.1517C0.883164 26.3032 0.404535 26.7402 0.171646 27.2501C0.0132049 27.5969 0.00384163 28.0736 0.00246468 35.8331C0.00145491 41.2891 0.0333084 44.1654 0.0971991 44.3957C0.217728 44.8299 0.655783 45.3362 1.11201 45.569C1.4266 45.7295 1.66298 45.7472 3.48744 45.7472C5.6924 45.7472 5.94338 45.7022 6.4568 45.2145C6.86391 44.8277 7.00189 44.4754 7.06018 43.6734L7.11415 42.9307L10.9921 44.6649C15.0666 46.4871 15.5695 46.6607 16.7807 46.6636C17.1494 46.6644 20.0203 46.4157 23.1606 46.1108C34.2646 45.0327 33.6897 45.1115 34.8825 44.5052C35.2108 44.3384 37.8747 42.637 40.8023 40.7245C46.4861 37.0114 46.6072 36.9174 46.8427 36.0359C46.9359 35.6873 46.9617 36.3131 47.0013 39.8801C47.034 42.8339 47.0486 41.5786 47.0487 35.7872C47.0489 30.6139 47.0303 28.8141 46.9999 31.0597C46.9729 33.054 46.9408 34.603 46.9286 34.5021C46.8844 34.1379 46.4638 33.3936 46.1159 33.0641C45.4804 32.4623 45.0488 32.2989 44.0943 32.2989H43.2542L38.9537 34.4301C34.6379 36.5689 33.9064 36.8737 32.4103 37.1576C31.1801 37.3909 31.2415 37.4195 31.1919 36.5904C31.1012 35.0729 30.0053 33.6591 28.4663 33.0744C28.1084 32.9383 26.8998 32.7639 24.0163 32.432C21.8389 32.1814 19.7641 31.9132 19.4056 31.836C18.6645 31.6767 17.8944 31.327 16.4626 30.4999C13.9184 29.0303 12.0779 28.5241 8.92714 28.4272L7.06825 28.3701V28.0137C7.06825 27.211 6.43789 26.3788 5.6533 26.1458C5.03624 25.9625 1.97454 25.9667 1.37464 26.1517ZM1.61873 27.5781L1.37685 27.7683V35.8653C1.37685 43.0451 1.393 43.9853 1.51978 44.1662C1.65949 44.3657 1.70429 44.3702 3.53407 44.3702C5.36386 44.3702 5.40866 44.3657 5.54837 44.1662C5.66734 43.9963 5.6913 43.6191 5.6913 41.913V39.8638L5.91666 39.6386C6.2038 39.3513 6.55575 39.3513 6.84289 39.6386C7.04622 39.8418 7.06825 39.9389 7.06825 40.6308V41.3979L11.1091 43.2069C13.3315 44.202 15.385 45.0773 15.6723 45.1522C15.9596 45.227 16.4588 45.2882 16.7816 45.2882C17.498 45.2882 32.3579 43.8543 33.0009 43.7232C33.2533 43.6717 33.6871 43.5357 33.9647 43.421C34.2424 43.3062 36.8958 41.6285 39.8611 39.6927C44.952 36.3693 45.2635 36.1505 45.449 35.7673C45.8014 35.0393 45.5063 34.1346 44.7966 33.7676C44.1443 33.4302 44.0031 33.482 39.5924 35.6738C34.1165 38.3949 33.5921 38.5588 29.5472 38.8144C19.4025 39.4556 19.9864 39.43 19.7362 39.2441C19.3738 38.9747 19.3722 38.3228 19.7336 38.1295C19.8319 38.0768 21.9691 37.9097 24.483 37.758C26.9968 37.6063 29.2292 37.4598 29.4437 37.4323L29.8339 37.3824V36.9454C29.8339 36.3018 29.5951 35.7101 29.1239 35.186C28.351 34.3264 28.2847 34.3087 23.917 33.8062C21.7943 33.5619 19.7952 33.3172 19.4748 33.2623C18.5674 33.1069 17.5077 32.6788 16.2046 31.9411C14.6097 31.0382 14.2347 30.8559 13.2828 30.5202C11.8771 30.0246 10.8821 29.8623 8.88124 29.8023L7.06825 29.748V33.4373V37.1266L6.84289 37.3519C6.71897 37.4758 6.51059 37.5773 6.37978 37.5773C6.24897 37.5773 6.04059 37.4758 5.91666 37.3519L5.6913 37.1266V32.4825V27.8384L5.46594 27.6132C5.24306 27.3902 5.22259 27.3878 3.5506 27.3878C1.97986 27.3878 1.84354 27.4012 1.61873 27.5781ZM0.0438651 35.879C0.0438651 40.4735 0.0550643 42.3396 0.068742 40.0259C0.0824198 37.7122 0.0824198 33.9531 0.068742 31.6723C0.0550643 29.3916 0.0438651 31.2846 0.0438651 35.879Z" fill="#0E384C"/>
<path fill-rule="evenodd" clip-rule="evenodd" d="M21.2049 2.97168C15.699 3.94638 11.3543 8.32747 10.4193 13.8478C10.3204 14.431 10.2652 15.2511 10.2677 16.0968C10.2739 18.2759 10.6487 19.8797 11.6118 21.8492C13.4445 25.5965 16.7661 28.1635 20.9295 29.05C21.718 29.218 22.1856 29.2552 23.4998 29.2552C25.2418 29.2552 26.3004 29.0938 27.7225 28.6111C32.3283 27.048 35.7232 23.0653 36.5891 18.2093C36.7825 17.1257 36.7787 15.0028 36.5816 13.8478C35.7535 8.99695 32.2705 4.9466 27.6181 3.42433C25.6775 2.78937 23.2161 2.61569 21.2049 2.97168ZM21.5204 4.30631C16.6364 5.12734 12.6619 9.077 11.7887 13.9772C11.5844 15.1237 11.603 17.1101 11.8288 18.254C12.7831 23.0881 16.3971 26.7021 21.2967 27.7217C22.3826 27.9477 24.6363 27.9488 25.7029 27.7239C29.5046 26.9222 32.5002 24.6245 34.2192 21.1915C34.5522 20.5265 34.9865 19.1872 35.1719 18.254C35.3987 17.1115 35.417 15.1283 35.2113 13.9772C34.5695 10.3858 32.2622 7.23619 29.0039 5.5039C28.0177 4.97955 26.5472 4.48669 25.4275 4.3053C24.3753 4.13474 22.5381 4.1352 21.5204 4.30631ZM21.8475 6.04761C20.5122 6.25718 18.3102 7.15468 17.8773 7.6658C17.5178 8.09009 17.8091 8.75305 18.3551 8.75305C18.5044 8.75305 18.8381 8.62829 19.0968 8.47582C23.0944 6.11866 28.3247 7.38463 30.8604 11.3234C32.5913 14.0119 32.6891 17.5376 31.1101 20.3241C30.6772 21.088 30.6611 21.439 31.0456 21.7249C31.2485 21.8756 31.3486 21.8935 31.5964 21.8232C31.8441 21.753 31.9706 21.6123 32.2907 21.0513C33.1567 19.5342 33.5975 17.8543 33.5975 16.0715C33.5975 13.3545 32.6674 11.0069 30.8207 9.06277C28.5106 6.63089 25.2059 5.52051 21.8475 6.04761ZM23.0408 9.30383C22.9019 9.44272 22.8572 9.60979 22.8572 9.99056C22.8572 10.4635 22.8421 10.4974 22.6048 10.5544C21.4754 10.8258 20.6589 11.8826 20.5818 13.1724C20.5099 14.3755 20.9673 15.0713 22.2929 15.7755L22.8113 16.0509L22.836 18.1054L22.8608 20.1599L22.4688 20.0975C22.2533 20.0632 21.8607 19.9132 21.5964 19.7642C21.3321 19.6152 21.0119 19.4933 20.885 19.4933C20.3373 19.4933 20.0761 20.2743 20.4935 20.6638C20.8199 20.9684 21.6191 21.3316 22.2407 21.458L22.8113 21.574L22.8388 22.0911C22.8615 22.5199 22.9067 22.64 23.1036 22.7948C23.4101 23.036 23.6161 23.0307 23.9145 22.774C24.1118 22.6042 24.1652 22.462 24.2078 21.9937C24.2488 21.5415 24.2918 21.421 24.4125 21.421C24.7399 21.421 25.5345 20.9253 25.9687 20.4502C26.5828 19.7783 26.8347 19.1161 26.8392 18.1622C26.8433 17.2904 26.651 16.7835 26.0821 16.1662C25.7243 15.7782 25.0027 15.3518 24.4829 15.2213L24.2342 15.1589V13.5166C24.2342 12.6132 24.2618 11.8741 24.2956 11.8741C24.3294 11.8741 24.5766 11.9981 24.845 12.1495C25.1134 12.301 25.4297 12.4249 25.5479 12.4249C25.8768 12.4249 26.1809 12.0467 26.1456 11.6815C26.1071 11.2853 25.526 10.8309 24.776 10.6104C24.2659 10.4605 24.2345 10.4348 24.2343 10.1666C24.2341 9.76355 24.0604 9.31558 23.8634 9.2101C23.5934 9.06561 23.2387 9.106 23.0408 9.30383ZM15.3224 10.0611C14.5832 11.0763 14.0298 12.251 13.6545 13.6011C13.4868 14.2046 13.4583 14.5527 13.4581 16.005C13.4578 17.5521 13.4792 17.7826 13.699 18.5942C14.1744 20.3493 15.0836 21.9118 16.3873 23.2134C19.6326 26.4539 24.7084 27.0898 28.6547 24.7505C29.8511 24.0412 30.1229 23.6578 29.7678 23.1801C29.4624 22.7691 29.1176 22.8071 28.3045 23.3409C26.2217 24.7082 23.7857 25.1126 21.3416 24.4969C18.3324 23.7387 16.0327 21.5049 15.0828 18.4176C14.8556 17.6792 14.8344 17.4803 14.8308 16.0509C14.8274 14.6933 14.8541 14.3961 15.0359 13.7656C15.302 12.8426 15.7501 11.8728 16.2517 11.1341C16.4836 10.7927 16.6456 10.4483 16.6456 10.2972C16.6456 9.91574 16.3773 9.67101 15.9588 9.67101C15.65 9.67101 15.5713 9.71921 15.3224 10.0611ZM22.4454 12.165C22.3063 12.2744 22.1354 12.5003 22.0659 12.6669C21.9182 13.0201 21.8998 13.6484 22.0299 13.8915C22.1135 14.0477 22.6655 14.4445 22.7992 14.4445C22.8312 14.4445 22.8572 13.8868 22.8572 13.2052C22.8572 12.5236 22.8215 11.9659 22.7778 11.9659C22.7341 11.9659 22.5846 12.0555 22.4454 12.165ZM24.2342 18.3512C24.2342 19.6875 24.259 20.0409 24.3489 19.99C25.0867 19.5731 25.4616 18.9753 25.4669 18.2078C25.4695 17.8374 25.4144 17.6119 25.2608 17.3632C25.0598 17.0381 24.5563 16.6476 24.3381 16.6476C24.2645 16.6476 24.2342 17.1443 24.2342 18.3512Z" fill="#1E84B5"/>
</g>
</mask>
<g mask="url(#mask0_121_2)">
<rect x="-5" y="-3" width="63" height="56" fill="url(#paint0_linear_121_2)"/>
</g>
<defs>
<linearGradient id="paint0_linear_121_2" x1="26.5" y1="-3" x2="26.5" y2="53" gradientUnits="userSpaceOnUse">
<stop stop-color="#012D3A"/>
<stop offset="1" stop-color="#51B8A8"/>
</linearGradient>
</defs>
</svg>
