<svg width="48" height="49" viewBox="0 0 48 49" fill="none" xmlns="http://www.w3.org/2000/svg">
<mask id="mask0_121_19" style="mask-type:alpha" maskUnits="userSpaceOnUse" x="1" y="1" width="45" height="48">
<mask id="mask1_121_19" style="mask-type:luminance" maskUnits="userSpaceOnUse" x="0" y="1" width="48" height="48">
<path d="M47.2363 1.22559H0.236328V48.2256H47.2363V1.22559Z" fill="white"/>
</mask>
<g mask="url(#mask1_121_19)">
<path fill-rule="evenodd" clip-rule="evenodd" d="M31.2811 1.34984C31.1644 1.41456 30.9892 1.58869 30.8915 1.73667C30.7295 1.9825 30.7141 2.18409 30.7135 4.05298C30.7126 7.04134 30.5891 6.91704 33.5586 6.91704C36.5257 6.91704 36.4043 7.03849 36.4043 4.07134C36.4043 1.10107 36.5283 1.22417 33.5402 1.22885C32.052 1.23124 31.4352 1.26429 31.2811 1.34984ZM32.0898 4.07134V5.54009H33.5586H35.0273V4.07134V2.60259H33.5586H32.0898V4.07134ZM38.1484 6.89428C37.5218 7.20731 37.5061 7.30525 37.5061 10.9102C37.5061 14.5152 37.5218 14.6131 38.1484 14.9261C38.4362 15.07 38.8095 15.0867 41.7285 15.0865C44.7988 15.0863 45.0043 15.0759 45.2811 14.907C45.8542 14.5577 45.8594 14.5214 45.859 10.8918C45.8587 7.75754 45.8501 7.59148 45.6734 7.30167C45.3389 6.75291 45.2014 6.73345 41.6626 6.73363C38.8067 6.73373 38.4359 6.75071 38.1484 6.89428ZM38.9746 10.9102V13.6182H41.7285H44.4824V10.9102V8.2022H41.7285H38.9746V10.9102ZM27.5 11.0251C26.8655 11.342 26.8577 11.3954 26.8577 15.4083C26.8577 19.4212 26.8655 19.4745 27.5 19.7914C27.7895 19.936 28.1782 19.9519 31.4289 19.952C35.4121 19.9522 35.413 19.9521 35.7654 19.374C35.9353 19.0955 35.9447 18.8885 35.9447 15.4083C35.9447 11.8869 35.937 11.7239 35.7593 11.4325C35.4816 10.9769 35.1084 10.8643 33.8758 10.8643C32.8203 10.8643 32.8075 10.8669 32.5418 11.1326C32.2155 11.459 32.2034 11.6905 32.4949 12.0296C32.706 12.2752 32.7592 12.2886 33.6423 12.3187L34.5684 12.3502V15.4169V18.4834H31.4473H28.3262V15.4172V12.3508L29.2063 12.319C30.0387 12.2889 30.0984 12.2732 30.3079 12.0296C30.5993 11.6906 30.5873 11.459 30.261 11.1326C29.9946 10.8663 29.9846 10.8643 28.907 10.8645C28.0573 10.8646 27.7514 10.8995 27.5 11.0251ZM17.2615 11.2662C16.8976 11.4274 16.4673 11.8889 16.3313 12.2639C16.2668 12.4417 16.2201 13.1429 16.216 13.9969L16.209 15.4311L15.3599 15.7272C14.8928 15.8899 14.1772 16.1842 13.7697 16.3812C13.3621 16.5781 12.9689 16.7393 12.8959 16.7393C12.823 16.7393 12.3303 16.3026 11.8011 15.769C11.2719 15.2353 10.716 14.7337 10.5656 14.6543C10.215 14.4691 9.44411 14.4688 9.09262 14.6538C8.76692 14.8252 5.26726 18.339 5.09991 18.6625C4.93871 18.9742 4.95423 19.7633 5.12791 20.092C5.20731 20.2424 5.70889 20.7983 6.2426 21.3275C6.77621 21.8567 7.21289 22.3509 7.21289 22.4259C7.21289 22.5007 7.05142 22.8939 6.85396 23.2996C6.6566 23.7052 6.3623 24.4192 6.19991 24.8863L5.90469 25.7354L4.47046 25.7424C2.90303 25.75 2.5989 25.815 2.15066 26.2381C1.63412 26.7256 1.61328 26.8598 1.61328 29.6966C1.61328 32.1485 1.62365 32.3083 1.80798 32.689C1.92512 32.931 2.15094 33.1895 2.37464 33.3377C2.73541 33.5767 2.79241 33.5849 4.28494 33.613C5.32995 33.6326 5.8509 33.6768 5.90919 33.7506C5.95647 33.8105 6.08893 34.1486 6.20358 34.502C6.31824 34.8554 6.59225 35.5327 6.81247 36.0071C7.03269 36.4815 7.21289 36.9119 7.21289 36.9634C7.21289 37.0151 6.74509 37.5357 6.17329 38.1205C5.29278 39.0209 5.11726 39.2494 5.0262 39.6131C4.96708 39.8493 4.93569 40.0971 4.95652 40.1639C4.97736 40.2306 5.02152 40.4091 5.05465 40.5606C5.13525 40.9291 8.66172 44.501 9.18652 44.7457C10.0053 45.1275 10.51 44.9064 11.8011 43.5997C12.3303 43.0642 12.8169 42.626 12.8824 42.626C12.9478 42.626 13.2584 42.7561 13.5725 42.9151C13.8865 43.0742 14.5979 43.3763 15.1533 43.5865L16.1631 43.9687L16.209 45.5305C16.2535 47.0443 16.2626 47.1038 16.5074 47.4735C16.9882 48.1995 17.115 48.2256 20.1572 48.2256C22.9711 48.2256 23.0947 48.2096 23.585 47.7788C23.9912 47.422 24.0558 47.141 24.1035 45.5198L24.1494 43.9614L25.0674 43.6293C25.5723 43.4465 26.2838 43.1461 26.6486 42.9615C27.0134 42.777 27.3652 42.626 27.4305 42.626C27.4958 42.626 27.9822 43.0642 28.5114 43.5997C29.7629 44.8662 30.1678 45.0613 31.0235 44.81C31.3235 44.7219 31.7302 44.3767 32.9972 43.1347C34.9523 41.2182 35.2715 40.8316 35.3542 40.28C35.4581 39.5878 35.2484 39.2175 34.1103 38.083C33.5545 37.5288 33.0996 37.0221 33.0996 36.9568C33.0996 36.8916 33.2506 36.5398 33.4351 36.175C33.6196 35.8102 33.9201 35.0987 34.1029 34.5938L34.435 33.6758L35.9934 33.6299C37.7376 33.5785 37.9443 33.518 38.3961 32.9259L38.6533 32.5889L38.68 29.8085C38.7056 27.1533 38.6983 27.0114 38.5176 26.6572C38.413 26.4522 38.158 26.1736 37.947 26.0338L37.5657 25.7813L35.3556 25.7553C33.3823 25.7321 33.1118 25.7469 32.8307 25.893C32.2341 26.2033 32.1467 26.4269 32.1055 27.7487L32.0686 28.9311L30.8128 28.9627C29.0599 29.0067 28.8292 29.1796 28.677 30.564C28.2071 34.8405 24.8654 38.0126 20.6372 38.1958C18.4909 38.2889 16.7484 37.7745 15.1038 36.5623C11.8183 34.1404 10.6968 29.6844 12.4499 26.0174C12.9339 25.0049 13.4714 24.2631 14.2602 23.519C15.0639 22.7608 15.5467 22.4277 16.5065 21.9689C18.1551 21.1807 20.031 20.9569 21.8881 21.3267C23.0802 21.5641 23.4127 21.5312 23.7891 21.1387L24.0576 20.8586L24.0866 19.3057L24.1155 17.7527L23.8842 17.5214C23.5891 17.2263 23.1931 17.2185 22.9261 17.5025C22.7428 17.6977 22.7266 17.8102 22.7266 18.8813V20.0475L22.4741 19.9913C22.3353 19.9605 22.1575 19.9181 22.0791 19.8973C22.0007 19.8766 21.5231 19.8201 21.0177 19.772C18.1282 19.4966 15.2234 20.5575 13.1273 22.6537C9.32046 26.4604 9.22214 32.5707 12.9043 36.5069C15.4043 39.1794 19.3068 40.2851 22.8186 39.3158C23.7233 39.0661 25.0351 38.4401 25.8859 37.8519C26.6693 37.3103 27.9431 36.0239 28.4303 35.2823C29.2474 34.0383 29.8209 32.5786 30.0111 31.2584L30.1257 30.4629L31.452 30.417C33.4014 30.3496 33.5586 30.1926 33.5586 28.3129V27.2004L35.4175 27.2252L37.2764 27.2501L37.301 29.6368C37.3232 31.7992 37.3108 32.0342 37.1687 32.1382C37.0592 32.2183 36.584 32.253 35.5974 32.253C33.5609 32.253 33.3698 32.3771 32.7752 34.0853C32.5929 34.6089 32.2815 35.36 32.0832 35.7544C31.4129 37.0876 31.5636 37.5872 33.0891 39.0899C33.5492 39.5433 33.9258 39.9766 33.9258 40.0529C33.9258 40.2352 30.7106 43.4522 30.5285 43.4522C30.4512 43.4522 29.9963 43.0568 29.5177 42.5737C28.0374 41.0793 27.5632 40.9383 26.2453 41.6009C25.8413 41.8041 25.0824 42.1193 24.5589 42.3016C22.842 42.8992 22.7266 43.0802 22.7266 45.1761C22.7266 46.3075 22.6977 46.6666 22.6005 46.7472C22.5116 46.8211 21.7746 46.8446 20.0991 46.8273L17.7236 46.8028L17.6764 45.2422C17.6117 43.1122 17.484 42.902 15.9231 42.3569C15.4505 42.1918 14.6718 41.8712 14.1927 41.6443C13.2424 41.1943 12.6831 41.1187 12.1986 41.375C12.0566 41.4501 11.5074 41.9482 10.9782 42.4819C10.449 43.0155 9.94082 43.4522 9.84902 43.4522C9.67112 43.4522 6.38672 40.2111 6.38672 40.0355C6.38672 39.9792 6.85828 39.4513 7.43467 38.8625C8.87561 37.3905 8.94684 37.0887 8.20219 35.6101C7.99702 35.2026 7.69051 34.4768 7.52124 33.9971C7.19224 33.0651 7.02792 32.7878 6.62714 32.4882C6.40058 32.3188 6.20514 32.294 4.77027 32.253C3.48034 32.2161 3.14969 32.1802 3.07983 32.0694C2.98555 31.9199 2.95719 27.75 3.04807 27.4107C3.10232 27.2085 3.13151 27.2042 4.44678 27.2036C5.18556 27.2033 5.95527 27.1577 6.15723 27.1023C6.75363 26.9384 7.21298 26.378 7.51242 25.4486C7.65186 25.0158 7.94653 24.2907 8.16712 23.8374C8.94152 22.2465 8.88727 22.0026 7.42503 20.4968C6.85396 19.9087 6.38672 19.3902 6.38672 19.3447C6.38672 19.2346 9.71472 15.9131 9.82497 15.9131C9.87225 15.9131 10.3502 16.3461 10.8873 16.8754C12.3846 18.3508 12.7808 18.4572 14.1727 17.7576C14.5606 17.5626 15.2388 17.2758 15.6798 17.1202C16.7163 16.7545 16.9623 16.623 17.2501 16.2808C17.6016 15.8631 17.6766 15.4575 17.6772 13.9723C17.6776 12.8315 17.6997 12.6196 17.823 12.5724C17.9028 12.5417 18.9739 12.5167 20.2031 12.5167C22.1124 12.5167 22.4591 12.5377 22.5823 12.6609C22.6977 12.7763 22.7266 13.0298 22.7266 13.93C22.7266 14.9872 22.7393 15.067 22.939 15.2546C23.2209 15.5193 23.598 15.509 23.8782 15.2288C24.0959 15.0111 24.1034 14.9606 24.1015 13.7371C24.0991 12.2238 23.9796 11.8542 23.3603 11.4441L22.9699 11.1856L20.2549 11.1642C18.1438 11.1476 17.4781 11.1703 17.2615 11.2662ZM38.5981 17.9588C38.1279 18.275 38.0677 18.5737 38.0618 20.6207C38.0562 22.6047 38.1098 22.8851 38.5628 23.2415C38.8056 23.4325 38.9004 23.4405 40.9193 23.4405C43.267 23.4405 43.4291 23.4063 43.6898 22.8569C43.8141 22.5949 43.8398 22.2051 43.8395 20.5809C43.839 17.6835 43.9065 17.7491 40.9205 17.7491C38.9786 17.7491 38.8993 17.7562 38.5981 17.9588ZM39.5254 20.5948V22.0635H40.9482H42.3711V20.5948V19.126H40.9482H39.5254V20.5948ZM25.9778 21.9664C25.8728 22.0103 25.6765 22.1772 25.5418 22.3373L25.2969 22.6284V24.7878V26.9471L25.6007 27.251C25.9956 27.6459 26.2842 27.6856 28.4832 27.6476C30.0978 27.6197 30.2621 27.6015 30.4999 27.4248C30.962 27.0812 30.9854 26.9503 30.9869 24.7013L30.9883 22.6116L30.6742 22.2687L30.3601 21.9258L28.2646 21.9063C27.112 21.8954 26.0829 21.9225 25.9778 21.9664ZM26.6738 24.7256V26.1944H28.1426H29.6113V24.7256V23.2569H28.1426H26.6738V24.7256ZM18.8041 25.4623C17.6 25.8558 16.4889 26.903 16.0136 28.0924C15.832 28.5471 15.7998 28.7925 15.798 29.7355L15.7959 30.844L16.1852 31.6296C17.5821 34.4486 21.189 35.0211 23.3532 32.7673C25.5261 30.5043 24.8316 26.9804 21.9467 25.6303C21.3822 25.3662 21.2114 25.3314 20.3454 25.305C19.5616 25.2811 19.2665 25.3112 18.8041 25.4623ZM19.4623 26.7336C18.5823 26.9624 17.7476 27.657 17.3721 28.4732C17.0867 29.0936 17.0928 30.284 17.3847 30.9219C17.6491 31.4998 18.2311 32.105 18.8252 32.42C19.228 32.6336 19.3909 32.6635 20.1562 32.6647C21.1763 32.6663 21.686 32.4722 22.3159 31.8423C22.9451 31.213 23.1397 30.7027 23.1392 29.6827C23.1388 28.9166 23.1091 28.7543 22.895 28.3479C22.599 27.7861 21.9393 27.1599 21.3858 26.915C20.9365 26.7163 19.9038 26.6189 19.4623 26.7336Z" fill="#1E84B5"/>
<path fill-rule="evenodd" clip-rule="evenodd" d="M31.2811 1.34984C31.1644 1.41456 30.9892 1.58869 30.8915 1.73667C30.7295 1.9825 30.7141 2.18409 30.7135 4.05298C30.7126 7.04134 30.5891 6.91704 33.5586 6.91704C36.5257 6.91704 36.4043 7.03849 36.4043 4.07134C36.4043 1.10107 36.5283 1.22417 33.5402 1.22885C32.052 1.23124 31.4352 1.26429 31.2811 1.34984ZM32.0898 4.07134V5.54009H33.5586H35.0273V4.07134V2.60259H33.5586H32.0898V4.07134ZM38.1484 6.89428C37.5218 7.20731 37.5061 7.30525 37.5061 10.9102C37.5061 14.5152 37.5218 14.6131 38.1484 14.9261C38.4362 15.07 38.8095 15.0867 41.7285 15.0865C44.7988 15.0863 45.0043 15.0759 45.2811 14.907C45.8542 14.5577 45.8594 14.5214 45.859 10.8918C45.8587 7.75754 45.8501 7.59148 45.6734 7.30167C45.3389 6.75291 45.2014 6.73345 41.6626 6.73363C38.8067 6.73373 38.4359 6.75071 38.1484 6.89428ZM38.9746 10.9102V13.6182H41.7285H44.4824V10.9102V8.2022H41.7285H38.9746V10.9102ZM27.5 11.0251C26.8655 11.342 26.8577 11.3954 26.8577 15.4083C26.8577 19.4212 26.8655 19.4745 27.5 19.7914C27.7895 19.936 28.1782 19.9519 31.4289 19.952C35.4121 19.9522 35.413 19.9521 35.7654 19.374C35.9353 19.0955 35.9447 18.8885 35.9447 15.4083C35.9447 11.8869 35.937 11.7239 35.7593 11.4325C35.4816 10.9769 35.1084 10.8643 33.8758 10.8643C32.8203 10.8643 32.8075 10.8669 32.5418 11.1326C32.2155 11.459 32.2034 11.6905 32.4949 12.0296C32.706 12.2752 32.7592 12.2886 33.6423 12.3187L34.5684 12.3502V15.4169V18.4834H31.4473H28.3262V15.4172V12.3508L29.2063 12.319C30.0387 12.2889 30.0984 12.2732 30.3079 12.0296C30.5993 11.6906 30.5873 11.459 30.261 11.1326C29.9946 10.8663 29.9846 10.8643 28.907 10.8645C28.0573 10.8646 27.7514 10.8995 27.5 11.0251ZM38.5981 17.9588C38.1279 18.275 38.0677 18.5737 38.0618 20.6207C38.0562 22.6047 38.1098 22.8851 38.5628 23.2415C38.8056 23.4325 38.9004 23.4405 40.9193 23.4405C43.267 23.4405 43.4291 23.4063 43.6898 22.8569C43.8141 22.5949 43.8398 22.2051 43.8395 20.5809C43.839 17.6835 43.9065 17.7491 40.9205 17.7491C38.9787 17.7491 38.8993 17.7562 38.5981 17.9588ZM39.5254 20.5948V22.0635H40.9482H42.3711V20.5948V19.126H40.9482H39.5254V20.5948ZM25.9778 21.9664C25.8728 22.0103 25.6765 22.1772 25.5418 22.3373L25.2969 22.6284V24.7878V26.9471L25.6007 27.251C25.9956 27.6459 26.2842 27.6856 28.4832 27.6476C30.0978 27.6197 30.2621 27.6015 30.4999 27.4248C30.962 27.0812 30.9854 26.9503 30.9869 24.7013L30.9883 22.6116L30.6742 22.2687L30.3601 21.9258L28.2646 21.9063C27.112 21.8954 26.0829 21.9225 25.9778 21.9664ZM26.6738 24.7256V26.1944H28.1426H29.6113V24.7256V23.2569H28.1426H26.6738V24.7256Z" fill="#0E384C"/>
</g>
</mask>
<g mask="url(#mask0_121_19)">
<rect x="-12" y="-3" width="63" height="56" fill="url(#paint0_linear_121_19)"/>
</g>
<defs>
<linearGradient id="paint0_linear_121_19" x1="19.5" y1="-3" x2="19.5" y2="53" gradientUnits="userSpaceOnUse">
<stop stop-color="#012D3A"/>
<stop offset="1" stop-color="#51B8A8"/>
</linearGradient>
</defs>
</svg>
