<svg width="48" height="49" viewBox="0 0 48 49" fill="none" xmlns="http://www.w3.org/2000/svg">
<mask id="mask0_121_26" style="mask-type:alpha" maskUnits="userSpaceOnUse" x="0" y="1" width="48" height="48">
<mask id="mask1_121_26" style="mask-type:luminance" maskUnits="userSpaceOnUse" x="0" y="1" width="48" height="48">
<path d="M47.6348 1.22559H0.634766V48.2256H47.6348V1.22559Z" fill="white"/>
</mask>
<g mask="url(#mask1_121_26)">
<path fill-rule="evenodd" clip-rule="evenodd" d="M3.89328 1.35303C2.36266 1.72618 1.06915 3.05898 0.738587 4.60356C0.666986 4.93797 0.634949 6.93217 0.635867 10.9834C0.637335 17.3928 0.651839 17.6026 1.15479 18.482C1.48077 19.0519 2.23974 19.8171 2.79677 20.1373C3.55501 20.5732 4.1728 20.6865 5.79191 20.6865H7.239L8.91668 22.9125L10.5945 25.1386L10.9802 25.1666L11.3658 25.1946L13.0456 22.9446L14.7253 20.6944L29.3247 20.6905C45.2896 20.6861 44.4867 20.7125 45.4314 20.1598C46.4542 19.5614 47.3838 18.2879 47.5157 17.3045C47.5438 17.0945 47.6027 16.9228 47.6466 16.9228C47.6909 16.9228 47.7256 14.2207 47.7249 10.8412C47.7241 7.49644 47.6887 4.8146 47.6462 4.8817C47.5943 4.96349 47.5522 4.88042 47.5186 4.62954C47.3842 3.62693 46.4273 2.31451 45.4517 1.79457C44.3154 1.1889 45.4351 1.22552 28.0625 1.22552C12.4151 1.22552 12.2912 1.22699 12.1091 1.40912C11.8928 1.62539 11.8657 2.11843 12.0558 2.3784C12.1836 2.55327 12.4809 2.5574 28.1432 2.60248L44.1003 2.64838L44.6258 2.90642C45.2031 3.18989 45.6741 3.67935 45.9999 4.33413L46.2116 4.7597V10.956V17.1523L45.9541 17.6768C45.6381 18.3203 45.0293 18.8735 44.3629 19.1229C43.8688 19.3077 43.7202 19.3095 29.0492 19.3095H14.2345L13.9751 19.5311C13.8323 19.653 13.1166 20.5601 12.3845 21.5469C11.6524 22.5337 11.0266 23.3324 10.994 23.3219C10.9613 23.3113 10.3183 22.4765 9.56522 21.4667C8.81203 20.457 8.12007 19.5688 8.02744 19.4931C7.89452 19.3844 7.46051 19.3455 5.96789 19.3083C4.14315 19.2629 4.06053 19.2526 3.6121 19.0171C3.05719 18.7257 2.52293 18.1592 2.25351 17.5766C2.05927 17.1564 2.05734 17.0914 2.05734 10.956V4.7597L2.31254 4.24004C2.60638 3.64171 3.13531 3.12618 3.74438 2.84455C4.13801 2.6626 4.36016 2.64507 6.81536 2.60248C9.30048 2.55942 9.47012 2.54566 9.59221 2.3784C9.79297 2.10356 9.75423 1.65458 9.50996 1.42509C9.30223 1.22993 9.24256 1.22571 6.8249 1.23333C5.21883 1.23838 4.19144 1.28033 3.89328 1.35303ZM0.677818 10.956C0.677818 14.3135 0.689292 15.6869 0.703337 14.0082C0.71729 12.3295 0.71729 9.58244 0.703337 7.90375C0.689292 6.22497 0.677818 7.59852 0.677818 10.956ZM10.408 5.9258C10.2464 6.05294 9.937 6.57811 9.57514 7.33975C9.25844 8.00619 8.96496 8.57267 8.92292 8.59865C8.88088 8.62463 8.26905 8.73267 7.56323 8.83879C6.06024 9.0647 5.81229 9.14897 5.6331 9.4956C5.32825 10.0851 5.4407 10.2964 6.70327 11.5068L7.70872 12.4706L7.47629 13.751C7.17006 15.438 7.17373 15.5903 7.52899 15.9221C7.97071 16.3347 8.24537 16.2846 9.6919 15.5278L10.9544 14.8672L12.2432 15.5308C12.952 15.8957 13.6276 16.193 13.7446 16.1914C14.2292 16.1846 14.6741 15.7651 14.6774 15.3116C14.6785 15.1575 14.5754 14.4553 14.4484 13.751L14.2173 12.4706L15.2229 11.5068C16.4657 10.3157 16.5785 10.1114 16.3139 9.53057C16.1469 9.16393 15.8338 9.05378 14.3298 8.83218L12.9465 8.62839L12.369 7.39593C12.014 6.63824 11.6909 6.07864 11.5302 5.94352C11.198 5.6639 10.7499 5.65693 10.408 5.9258ZM23.6296 5.89229C23.4208 6.01962 23.2022 6.37459 22.7254 7.36068C22.3796 8.07587 22.0627 8.66107 22.0213 8.66107C21.5925 8.66107 19.2645 9.07471 19.1009 9.18C18.8323 9.35294 18.6197 9.84736 18.6887 10.1383C18.7176 10.2599 19.2158 10.8397 19.7959 11.4268L20.8506 12.4942L20.6105 13.9218C20.3485 15.4796 20.3639 15.6581 20.7894 15.9928C21.1904 16.3082 21.4924 16.2397 22.8625 15.5229L24.1345 14.8574L25.4065 15.5229C26.8394 16.2726 27.1019 16.3232 27.538 15.9335C27.8952 15.6143 27.902 15.4404 27.6226 13.7752L27.4102 12.5093L28.4803 11.4258C29.5069 10.3864 29.5505 10.3265 29.5505 9.95357C29.5505 9.33192 29.233 9.08297 28.2631 8.9439C27.8352 8.88248 27.1818 8.78821 26.8111 8.73432L26.1371 8.63629L25.4826 7.30936C24.9921 6.31502 24.7652 5.95013 24.5776 5.8531C24.2409 5.67896 23.9603 5.69052 23.6296 5.89229ZM36.775 5.90863C36.6207 6.03026 36.2631 6.62024 35.8793 7.3861C35.5281 8.08734 35.2037 8.66107 35.1587 8.66107C34.9957 8.66107 32.5299 9.03606 32.3669 9.08563C32.1247 9.15934 31.8464 9.66588 31.8439 10.038C31.8418 10.3293 31.9441 10.4582 32.9371 11.4164L34.0325 12.4734L33.8115 13.7113C33.5171 15.361 33.5217 15.5839 33.8579 15.9201C34.2741 16.3363 34.5511 16.2864 36.0266 15.5293L37.3161 14.8676L38.5714 15.528C39.8732 16.2129 40.1239 16.2794 40.5578 16.055C41.0527 15.7991 41.0852 15.5165 40.8054 13.9071L40.5556 12.4706L41.561 11.5068C42.8389 10.2816 42.955 10.0595 42.6164 9.48632C42.4013 9.12226 42.2119 9.05855 40.6712 8.83154L39.3065 8.6305L38.6741 7.35443C38.3263 6.65255 37.9726 6.01567 37.8882 5.93911C37.6177 5.69374 37.0667 5.67859 36.775 5.90863ZM10.449 8.68402C10.1913 9.20157 9.89147 9.6948 9.78269 9.78026C9.66042 9.87628 9.17233 9.99653 8.50525 10.0949L7.42571 10.2543L8.25271 11.0976C9.19143 12.0548 9.17711 12.0084 8.94211 13.3427C8.72987 14.5476 8.67498 14.5074 9.75322 13.9367C10.2865 13.6545 10.8193 13.4353 10.9695 13.4364C11.1167 13.4375 11.6604 13.6612 12.1779 13.9336C13.2454 14.4953 13.1912 14.5352 12.9812 13.3427C12.7462 12.0084 12.7318 12.0548 13.6706 11.0976L14.4976 10.2543L13.418 10.0949C12.7509 9.99653 12.2629 9.87628 12.1406 9.78026C12.0318 9.6948 11.732 9.20157 11.4743 8.68402C11.2166 8.16647 10.986 7.7431 10.9616 7.7431C10.9373 7.7431 10.7066 8.16647 10.449 8.68402ZM23.607 8.7033C23.3444 9.23141 23.0322 9.7272 22.9133 9.80514C22.7944 9.88307 22.2125 10.0157 21.6204 10.0999L20.5435 10.2531L21.3658 11.0865C21.8181 11.5449 22.2132 12.0047 22.2438 12.1083C22.2744 12.212 22.2172 12.749 22.1168 13.3017C22.0164 13.8544 21.9336 14.3411 21.9327 14.3834C21.932 14.4256 22.3674 14.2294 22.9003 13.9474C23.4333 13.6653 23.9818 13.4345 24.1194 13.4345C24.257 13.4345 24.8166 13.6658 25.3629 13.9486L26.3563 14.4626L26.3036 14.201C26.0654 13.0183 25.9648 12.2761 26.0152 12.075C26.0482 11.9439 26.4328 11.4986 26.8718 11.0834C27.3101 10.6689 27.648 10.3093 27.6228 10.2844C27.5975 10.2595 27.1238 10.172 26.57 10.0901C26.0162 10.0082 25.4678 9.87866 25.3514 9.80229C25.2349 9.72591 24.9246 9.23141 24.662 8.7033C24.3993 8.17519 24.1619 7.7431 24.1345 7.7431C24.107 7.7431 23.8697 8.17519 23.607 8.7033ZM36.8051 8.65584C36.5531 9.15778 36.2606 9.64908 36.1548 9.74758C36.0146 9.8783 35.6654 9.97074 34.8621 10.0895L33.7617 10.2524L34.5505 11.0449C35.4904 11.9891 35.5124 12.0641 35.2602 13.4575C35.1619 14.0002 35.0903 14.4443 35.101 14.4443C35.1117 14.4443 35.5505 14.218 36.0763 13.9413C36.6019 13.6647 37.1524 13.4375 37.2996 13.4364C37.4514 13.4353 37.9779 13.6538 38.5159 13.9411C39.0769 14.2407 39.4645 14.4001 39.4645 14.3313C39.4644 14.2672 39.4024 13.8637 39.3269 13.4345C39.0802 12.034 39.0725 12.06 40.0173 11.0965L40.8455 10.2521L39.7721 10.0994C39.1817 10.0154 38.6037 9.88445 38.4876 9.80835C38.3699 9.73124 38.0727 9.24343 37.8163 8.70651C37.5632 8.17666 37.3352 7.7431 37.3096 7.7431C37.284 7.7431 37.057 8.1538 36.8051 8.65584ZM9.50051 27.6728C3.49451 28.5488 -0.5395 34.5187 0.942652 40.3378C1.67703 43.2209 3.545 45.6211 6.1423 47.0185C7.48557 47.7412 9.41679 48.2244 10.9616 48.2244C15.4966 48.2244 19.6026 45.1284 20.8706 40.7529C22.2492 35.9957 19.9951 30.8775 15.5515 28.6748C13.6606 27.7375 11.5047 27.3806 9.50051 27.6728ZM25.856 28.5841C25.6163 28.6245 25.2746 28.7475 25.0966 28.8574C23.6106 29.7759 23.7225 32.3364 25.2808 33.0688L25.6981 33.265L35.8703 33.2409L46.0425 33.2167L46.4846 32.9413C46.792 32.7498 47.0133 32.5123 47.2117 32.1611C47.4649 31.7128 47.4968 31.5738 47.4968 30.9218C47.4968 30.271 47.4645 30.1301 47.2129 29.6826C46.8411 29.0214 46.2271 28.6328 45.4215 28.5486C44.6056 28.4632 26.3771 28.4964 25.856 28.5841ZM9.42312 29.0872C8.17551 29.3237 6.87356 29.8549 5.86691 30.5378C5.25738 30.9514 4.16022 32.0349 3.6983 32.6795C3.13421 33.4666 2.51302 34.8208 2.27022 35.7926C1.97729 36.9646 1.97977 38.8351 2.27573 40.0324C2.5088 40.9751 3.22224 42.4814 3.79597 43.2421L4.15692 43.7207L4.40018 43.0953C4.76517 42.1571 5.28152 41.3691 6.00819 40.641C6.61597 40.0321 7.94226 39.1376 8.23729 39.1376C8.30614 39.1376 8.16642 38.9207 7.92693 38.6557C7.68743 38.3907 7.34273 37.864 7.16106 37.4853C6.84363 36.8235 6.83078 36.7575 6.83078 35.787C6.83078 34.8112 6.84225 34.7532 7.1718 34.0631C8.44842 31.3895 11.8238 30.7876 13.906 32.8621C14.8266 33.7794 15.2757 35.1584 15.0612 36.4095C14.9178 37.2454 14.5229 38.0628 13.9972 38.6115C13.7666 38.8521 13.5778 39.0649 13.5778 39.0844C13.5778 39.1038 13.6987 39.1618 13.8465 39.2134C14.1898 39.333 15.057 39.8872 15.5753 40.3181C16.3541 40.9654 17.1476 42.1779 17.6738 43.5245C17.7522 43.7251 17.7722 43.7128 18.1143 43.2547C20.7095 39.7786 20.4265 34.9353 17.4432 31.7698C16.2893 30.5455 14.8096 29.6645 13.2161 29.2529C12.0952 28.9633 10.4544 28.8917 9.42312 29.0872ZM26.1999 29.9264C25.3668 30.1125 25.0771 31.059 25.6714 31.6533L25.9037 31.8857H35.7663H45.6291L45.8974 31.6174C46.2782 31.2366 46.2784 30.6377 45.8979 30.2119L45.6301 29.912L36.0068 29.8987C30.714 29.8914 26.3009 29.9039 26.1999 29.9264ZM10.0429 33.1522C7.68761 33.9667 7.51971 37.2083 9.77535 38.3185C10.4322 38.6418 11.5071 38.6296 12.155 38.2915C13.1551 37.7696 13.7112 36.8736 13.7097 35.787C13.7068 33.8664 11.8455 32.5289 10.0429 33.1522ZM25.9086 35.5606C25.3709 35.6684 25.044 35.8562 24.6665 36.274C24.2598 36.7242 24.0964 37.1896 24.0964 37.8984C24.0964 38.61 24.2599 39.0725 24.6734 39.5312C25.3583 40.2909 24.4749 40.2349 35.8186 40.2372C46.8211 40.2394 46.1769 40.2708 46.8263 39.7005C47.8031 38.843 47.7943 36.9641 46.8093 36.0743C46.3341 35.6449 45.9049 35.5247 44.8221 35.5177C43.7245 35.5106 43.5036 35.6249 43.5036 36.2001C43.5036 36.7137 43.6833 36.8134 44.7001 36.8636C45.1815 36.8874 45.6665 36.9556 45.7778 37.0152C46.0249 37.1475 46.2575 37.5757 46.2575 37.8984C46.2575 38.208 46.028 38.6477 45.8036 38.7677C45.6856 38.8308 42.3656 38.8622 35.8039 38.8622H25.9807L25.7342 38.6503C25.5461 38.4884 25.4777 38.3312 25.4447 37.9848C25.3917 37.4279 25.6206 37.0811 26.1352 36.9382C26.3551 36.8771 29.0457 36.8435 33.745 36.8433L41.0147 36.8427L41.1576 36.6386C41.3508 36.3628 41.3375 35.9908 41.1251 35.7284L40.9496 35.5117L33.6207 35.4977C29.5897 35.49 26.1193 35.5183 25.9086 35.5606ZM9.73441 40.1053C7.66365 40.5546 5.90069 42.299 5.47723 44.3178L5.36653 44.8458L5.68552 45.1124C6.21914 45.5583 7.95639 46.3707 8.80441 46.571C10.4307 46.9551 12.0681 46.9043 13.6114 46.4219C14.4448 46.1614 15.7497 45.5081 16.24 45.1057L16.5612 44.8422L16.3997 44.2159C16.1332 43.1833 15.7222 42.4762 14.9091 41.6514C14.3376 41.0718 14.0179 40.8316 13.4691 40.5692C12.2571 39.9901 10.9906 39.8327 9.73441 40.1053ZM25.8786 42.5417C24.9393 42.7285 24.2406 43.5612 24.1578 44.5928C24.0673 45.7207 24.5042 46.5954 25.3563 46.9921C25.8033 47.2002 25.9331 47.214 27.4569 47.2148C29.0318 47.2158 29.0855 47.2095 29.224 47.0117C29.4172 46.7359 29.404 46.3639 29.1917 46.1014C29.0223 45.892 28.9653 45.8837 27.5164 45.8558C26.0551 45.8275 26.01 45.8208 25.7724 45.5943C25.4474 45.2845 25.3675 44.8289 25.5651 44.4126C25.6497 44.2342 25.8066 44.0381 25.9135 43.9767C26.063 43.8911 28.3862 43.8652 35.915 43.8652H45.7218L45.9897 44.165C46.3444 44.5619 46.3644 45.1536 46.036 45.5353L45.8145 45.7929L38.8395 45.8388C32.1444 45.8829 31.8568 45.8917 31.6714 46.0596C31.4216 46.2858 31.4084 46.8488 31.648 47.0655C31.804 47.2068 32.3917 47.2171 38.976 47.1945L46.1343 47.1699L46.5763 46.8945C48.0404 45.9823 47.9329 43.507 46.3952 42.7224L45.9362 42.4882L36.114 42.4739C30.6417 42.466 26.1088 42.496 25.8786 42.5417Z" fill="#0E384C"/>
<path fill-rule="evenodd" clip-rule="evenodd" d="M3.89415 1.35303C2.36353 1.72618 1.07002 3.05898 0.739459 4.60356C0.667857 4.93797 0.63582 6.93217 0.636738 10.9834C0.638207 17.3928 0.652711 17.6026 1.15567 18.482C1.48164 19.0519 2.24061 19.8171 2.79764 20.1373C3.55588 20.5732 4.17367 20.6865 5.79278 20.6865H7.23987L8.91755 22.9125L10.5953 25.1386L10.9811 25.1666L11.3667 25.1946L13.0465 22.9446L14.7262 20.6944L29.3256 20.6905C45.2905 20.6861 44.4876 20.7125 45.4322 20.1598C46.455 19.5614 47.3847 18.2879 47.5166 17.3045C47.5447 17.0945 47.6036 16.9228 47.6475 16.9228C47.6917 16.9228 47.7265 14.2207 47.7258 10.8412C47.725 7.49644 47.6895 4.8146 47.647 4.8817C47.5952 4.96349 47.5531 4.88042 47.5195 4.62954C47.385 3.62693 46.4281 2.31451 45.4525 1.79457C44.3163 1.1889 45.436 1.22552 28.0634 1.22552C12.4159 1.22552 12.2921 1.22699 12.11 1.40912C11.8937 1.62539 11.8666 2.11843 12.0566 2.3784C12.1845 2.55327 12.4817 2.5574 28.144 2.60248L44.1012 2.64838L44.6266 2.90642C45.2039 3.18989 45.6749 3.67935 46.0007 4.33413L46.2125 4.7597V10.956V17.1523L45.9549 17.6768C45.639 18.3203 45.0302 18.8735 44.3637 19.1229C43.8697 19.3077 43.7211 19.3095 29.0501 19.3095H14.2353L13.9759 19.5311C13.8332 19.653 13.1174 20.5601 12.3854 21.5469C11.6533 22.5337 11.0275 23.3324 10.9948 23.3219C10.9621 23.3113 10.3192 22.4765 9.5661 21.4667C8.8129 20.457 8.12094 19.5688 8.02831 19.4931C7.89539 19.3844 7.46138 19.3455 5.96876 19.3083C4.14402 19.2629 4.0614 19.2526 3.61298 19.0171C3.05806 18.7257 2.52381 18.1592 2.25438 17.5766C2.06014 17.1564 2.05821 17.0914 2.05821 10.956V4.7597L2.31341 4.24004C2.60725 3.64171 3.13618 3.12618 3.74526 2.84455C4.13888 2.6626 4.36103 2.64507 6.81623 2.60248C9.30135 2.55942 9.47099 2.54566 9.59308 2.3784C9.79384 2.10356 9.75511 1.65458 9.51083 1.42509C9.3031 1.22993 9.24343 1.22571 6.82577 1.23333C5.2197 1.23838 4.19231 1.28033 3.89415 1.35303ZM0.678689 10.956C0.678689 14.3135 0.690164 15.6869 0.704209 14.0082C0.718162 12.3295 0.718162 9.58244 0.704209 7.90375C0.690164 6.22497 0.678689 7.59852 0.678689 10.956ZM10.4089 5.9258C10.2472 6.05294 9.93787 6.57811 9.57601 7.33975C9.25931 8.00619 8.96584 8.57267 8.92379 8.59865C8.88175 8.62463 8.26992 8.73267 7.5641 8.83879C6.06111 9.0647 5.81316 9.14897 5.63398 9.4956C5.32912 10.0851 5.44157 10.2964 6.70414 11.5068L7.7096 12.4706L7.47717 13.751C7.17093 15.438 7.1746 15.5903 7.52986 15.9221C7.97158 16.3347 8.24624 16.2846 9.69278 15.5278L10.9553 14.8672L12.2441 15.5308C12.9529 15.8957 13.6285 16.193 13.7454 16.1914C14.2301 16.1846 14.675 15.7651 14.6783 15.3116C14.6794 15.1575 14.5763 14.4553 14.4492 13.751L14.2182 12.4706L15.2238 11.5068C16.4666 10.3157 16.5794 10.1114 16.3147 9.53057C16.1477 9.16393 15.8346 9.05378 14.3307 8.83218L12.9473 8.62839L12.3698 7.39593C12.0149 6.63824 11.6917 6.07864 11.5311 5.94352C11.1989 5.6639 10.7507 5.65693 10.4089 5.9258ZM23.6305 5.89229C23.4216 6.01962 23.2031 6.37459 22.7263 7.36068C22.3805 8.07587 22.0636 8.66107 22.0222 8.66107C21.5933 8.66107 19.2654 9.07471 19.1018 9.18C18.8332 9.35294 18.6206 9.84736 18.6896 10.1383C18.7184 10.2599 19.2167 10.8397 19.7968 11.4268L20.8515 12.4942L20.6114 13.9218C20.3494 15.4796 20.3648 15.6581 20.7903 15.9928C21.1913 16.3082 21.4933 16.2397 22.8633 15.5229L24.1354 14.8574L25.4074 15.5229C26.8403 16.2726 27.1028 16.3232 27.5389 15.9335C27.8961 15.6143 27.9029 15.4404 27.6235 13.7752L27.411 12.5093L28.4812 11.4258C29.5078 10.3864 29.5514 10.3265 29.5514 9.95357C29.5514 9.33192 29.2339 9.08297 28.2639 8.9439C27.8361 8.88248 27.1827 8.78821 26.812 8.73432L26.138 8.63629L25.4835 7.30936C24.9929 6.31502 24.7661 5.95013 24.5785 5.8531C24.2418 5.67896 23.9611 5.69052 23.6305 5.89229ZM36.7759 5.90863C36.6216 6.03026 36.2639 6.62024 35.8802 7.3861C35.529 8.08734 35.2046 8.66107 35.1595 8.66107C34.9966 8.66107 32.5307 9.03606 32.3678 9.08563C32.1255 9.15934 31.8473 9.66588 31.8447 10.038C31.8427 10.3293 31.945 10.4582 32.9379 11.4164L34.0334 12.4734L33.8124 13.7113C33.5179 15.361 33.5226 15.5839 33.8588 15.9201C34.275 16.3363 34.552 16.2864 36.0275 15.5293L37.3169 14.8676L38.5723 15.528C39.8741 16.2129 40.1247 16.2794 40.5586 16.055C41.0535 15.7991 41.0861 15.5165 40.8062 13.9071L40.5564 12.4706L41.5619 11.5068C42.8398 10.2816 42.9558 10.0595 42.6173 9.48632C42.4022 9.12226 42.2127 9.05855 40.672 8.83154L39.3074 8.6305L38.675 7.35443C38.3272 6.65255 37.9735 6.01567 37.8891 5.93911C37.6186 5.69374 37.0676 5.67859 36.7759 5.90863ZM10.4498 8.68402C10.1922 9.20157 9.89234 9.6948 9.78356 9.78026C9.66129 9.87628 9.1732 9.99653 8.50612 10.0949L7.42659 10.2543L8.25358 11.0976C9.1923 12.0548 9.17798 12.0084 8.94298 13.3427C8.73074 14.5476 8.67585 14.5074 9.7541 13.9367C10.2873 13.6545 10.8201 13.4353 10.9704 13.4364C11.1176 13.4375 11.6613 13.6612 12.1788 13.9336C13.2462 14.4953 13.1921 14.5352 12.982 13.3427C12.747 12.0084 12.7327 12.0548 13.6714 11.0976L14.4984 10.2543L13.4189 10.0949C12.7518 9.99653 12.2637 9.87628 12.1415 9.78026C12.0327 9.6948 11.7329 9.20157 11.4752 8.68402C11.2175 8.16647 10.9868 7.7431 10.9625 7.7431C10.9382 7.7431 10.7075 8.16647 10.4498 8.68402ZM23.6079 8.7033C23.3453 9.23141 23.0331 9.7272 22.9142 9.80514C22.7953 9.88307 22.2134 10.0157 21.6212 10.0999L20.5444 10.2531L21.3667 11.0865C21.819 11.5449 22.2141 12.0047 22.2447 12.1083C22.2753 12.212 22.2181 12.749 22.1177 13.3017C22.0172 13.8544 21.9344 14.3411 21.9336 14.3834C21.9329 14.4256 22.3683 14.2294 22.9012 13.9474C23.4341 13.6653 23.9827 13.4345 24.1203 13.4345C24.2579 13.4345 24.8175 13.6658 25.3638 13.9486L26.3571 14.4626L26.3044 14.201C26.0663 13.0183 25.9657 12.2761 26.0161 12.075C26.0491 11.9439 26.4337 11.4986 26.8727 11.0834C27.311 10.6689 27.6489 10.3093 27.6236 10.2844C27.5984 10.2595 27.1246 10.172 26.5709 10.0901C26.0171 10.0082 25.4687 9.87866 25.3522 9.80229C25.2357 9.72591 24.9255 9.23141 24.6628 8.7033C24.4002 8.17519 24.1628 7.7431 24.1354 7.7431C24.1079 7.7431 23.8705 8.17519 23.6079 8.7033ZM36.806 8.65584C36.554 9.15778 36.2615 9.64908 36.1557 9.74758C36.0154 9.8783 35.6662 9.97074 34.863 10.0895L33.7626 10.2524L34.5514 11.0449C35.4913 11.9891 35.5133 12.0641 35.2611 13.4575C35.1627 14.0002 35.0911 14.4443 35.1019 14.4443C35.1126 14.4443 35.5514 14.218 36.0771 13.9413C36.6027 13.6647 37.1533 13.4375 37.3005 13.4364C37.4522 13.4353 37.9788 13.6538 38.5168 13.9411C39.0778 14.2407 39.4653 14.4001 39.4653 14.3313C39.4653 14.2672 39.4033 13.8637 39.3277 13.4345C39.0811 12.034 39.0734 12.06 40.0181 11.0965L40.8463 10.2521L39.773 10.0994C39.1826 10.0154 38.6046 9.88445 38.4884 9.80835C38.3708 9.73124 38.0735 9.24343 37.8171 8.70651C37.5641 8.17666 37.3361 7.7431 37.3105 7.7431C37.2849 7.7431 37.0579 8.1538 36.806 8.65584Z" fill="#1E84B5"/>
</g>
</mask>
<g mask="url(#mask0_121_26)">
<rect x="-8" y="1" width="63" height="56" fill="url(#paint0_linear_121_26)"/>
</g>
<defs>
<linearGradient id="paint0_linear_121_26" x1="23.5" y1="1" x2="23.5" y2="57" gradientUnits="userSpaceOnUse">
<stop stop-color="#012D3A"/>
<stop offset="1" stop-color="#51B8A8"/>
</linearGradient>
</defs>
</svg>
